<svg id="圖層_2" data-name="圖層 2" xmlns="http://www.w3.org/2000/svg" viewBox="0 0 45 45"><defs><style>.cls-1{fill:#fff;}.cls-2{fill:#166086;}.cls-3{fill:#f8b757;}.cls-4{fill:#f0844b;}.cls-5{fill:#1e6282;}.cls-6{fill:#db7d4a;}</style></defs><title>UI</title><circle class="cls-1" cx="22.33" cy="23.5" r="17"/><path class="cls-2" d="M21.36,41h0a17.67,17.67,0,0,1-2-.23.5.5,0,1,1,.17-1,16.68,16.68,0,0,0,1.91.22.5.5,0,0,1,0,1Zm2,0a.5.5,0,0,1,0-1,16.6,16.6,0,0,0,1.9-.22.5.5,0,1,1,.17,1,17.42,17.42,0,0,1-2,.24Zm-5.86-.68-.14,0a17.63,17.63,0,0,1-1.91-.69.5.5,0,1,1,.39-.92,16.66,16.66,0,0,0,1.8.65.5.5,0,0,1-.14,1Zm9.75,0a.5.5,0,0,1-.14-1,16.41,16.41,0,0,0,1.8-.66.5.5,0,1,1,.4.92,17.54,17.54,0,0,1-1.91.7ZM13.85,38.74a.5.5,0,0,1-.25-.07,17.69,17.69,0,0,1-1.7-1.12.5.5,0,1,1,.6-.8,16.6,16.6,0,0,0,1.6,1.05.5.5,0,0,1-.25.93Zm17,0a.5.5,0,0,1-.25-.93,16.69,16.69,0,0,0,1.6-1.06.5.5,0,1,1,.6.8,17.74,17.74,0,0,1-1.7,1.12A.5.5,0,0,1,30.84,38.72ZM10.68,36.38a.5.5,0,0,1-.34-.14,17.66,17.66,0,0,1-1.4-1.48.5.5,0,1,1,.76-.64A16.6,16.6,0,0,0,11,35.52a.5.5,0,0,1-.34.86Zm23.32,0a.5.5,0,0,1-.34-.86A16.61,16.61,0,0,0,35,34.1a.5.5,0,0,1,.77.64,17.61,17.61,0,0,1-1.4,1.48A.5.5,0,0,1,34,36.36Zm-25.86-3a.5.5,0,0,1-.42-.22,17.49,17.49,0,0,1-1-1.76.5.5,0,0,1,.89-.45,16.46,16.46,0,0,0,1,1.66.5.5,0,0,1-.42.78Zm28.4,0a.5.5,0,0,1-.42-.78,16.51,16.51,0,0,0,1-1.66.5.5,0,1,1,.89.45,17.51,17.51,0,0,1-1,1.76A.5.5,0,0,1,36.54,33.34ZM6.36,29.84a.5.5,0,0,1-.47-.33,17.44,17.44,0,0,1-.59-1.95.5.5,0,1,1,1-.23,16.48,16.48,0,0,0,.55,1.84.5.5,0,0,1-.47.67Zm31.95,0a.5.5,0,0,1-.47-.67,16.32,16.32,0,0,0,.55-1.84.5.5,0,0,1,1,.23,17.34,17.34,0,0,1-.58,2A.5.5,0,0,1,38.31,29.81ZM5.45,26a.5.5,0,0,1-.5-.44,17.74,17.74,0,0,1-.12-2,.5.5,0,0,1,.5-.5h0a.5.5,0,0,1,.5.5,16.73,16.73,0,0,0,.11,1.91.5.5,0,0,1-.44.56Zm33.77,0h-.06a.5.5,0,0,1-.44-.55,16.83,16.83,0,0,0,.11-1.92.53.53,0,0,1,.5-.53.47.47,0,0,1,.5.47v.07a17.71,17.71,0,0,1-.12,2A.5.5,0,0,1,39.22,26ZM5.44,22.06H5.39a.5.5,0,0,1-.44-.55,17.52,17.52,0,0,1,.35-2,.5.5,0,0,1,1,.23,16.61,16.61,0,0,0-.33,1.89A.5.5,0,0,1,5.44,22.06ZM39.21,22a.5.5,0,0,1-.5-.44,16.47,16.47,0,0,0-.34-1.89.5.5,0,1,1,1-.23,17.6,17.6,0,0,1,.36,2,.5.5,0,0,1-.44.56ZM6.34,18.22a.49.49,0,0,1-.17,0,.5.5,0,0,1-.3-.64,17.56,17.56,0,0,1,.8-1.87.5.5,0,0,1,.89.45,16.48,16.48,0,0,0-.76,1.76A.5.5,0,0,1,6.34,18.22Zm31.95-.09a.5.5,0,0,1-.47-.33A16.54,16.54,0,0,0,37.05,16a.5.5,0,1,1,.89-.45,17.47,17.47,0,0,1,.81,1.86.5.5,0,0,1-.47.67ZM8.11,14.69a.5.5,0,0,1-.42-.77A17.81,17.81,0,0,1,8.9,12.28a.5.5,0,0,1,.77.64,16.84,16.84,0,0,0-1.14,1.54A.5.5,0,0,1,8.11,14.69Zm28.4-.08a.5.5,0,0,1-.42-.22,16.62,16.62,0,0,0-1.15-1.53.5.5,0,1,1,.76-.65,17.53,17.53,0,0,1,1.22,1.63.5.5,0,0,1-.42.78ZM10.64,11.66a.5.5,0,0,1-.34-.86,17.58,17.58,0,0,1,1.55-1.31.5.5,0,0,1,.6.8A16.59,16.59,0,0,0,11,11.53.5.5,0,0,1,10.64,11.66ZM34,11.6a.5.5,0,0,1-.34-.14,16.57,16.57,0,0,0-1.47-1.23.5.5,0,1,1,.59-.8,17.73,17.73,0,0,1,1.56,1.3.5.5,0,0,1-.34.86ZM13.79,9.3a.5.5,0,0,1-.25-.93,17.45,17.45,0,0,1,1.81-.92.5.5,0,1,1,.4.92A16.55,16.55,0,0,0,14,9.23.5.5,0,0,1,13.79,9.3Zm17,0a.5.5,0,0,1-.25-.07,16.54,16.54,0,0,0-1.72-.86.5.5,0,0,1,.39-.92A17.57,17.57,0,0,1,31,8.31a.5.5,0,0,1-.25.93ZM17.41,7.72a.5.5,0,0,1-.14-1,17.4,17.4,0,0,1,2-.47.5.5,0,0,1,.18,1,16.6,16.6,0,0,0-1.86.45Zm9.75,0-.14,0a16.58,16.58,0,0,0-1.87-.43.5.5,0,0,1,.17-1,17.5,17.5,0,0,1,2,.46.5.5,0,0,1-.14,1ZM21.29,7a.5.5,0,0,1,0-1,17.88,17.88,0,0,1,2,0,.5.5,0,1,1-.05,1,16.67,16.67,0,0,0-1.92,0Z"/><path class="cls-3" d="M18.5,34.2a.5.5,0,0,1,0-1l12.83-1a.5.5,0,0,1,.08,1l-12.83,1Z"/><path class="cls-4" d="M21.77,28.17,17.3,25.63a.69.69,0,0,0-1,.53l-.44,4.19,2.46,1.4,3.52-2.41A.69.69,0,0,0,21.77,28.17Z"/><path class="cls-5" d="M15.66,32.07a.74.74,0,0,0,1.16.69l1.49-1-2.46-1.4Z"/><rect class="cls-5" x="19.09" y="13.43" width="7.29" height="15.76" rx="1.14" ry="1.14" transform="translate(13.5 -8.45) rotate(29.61)"/><path class="cls-6" d="M19.07,26.13a.56.56,0,0,1-.6-.82l5.32-9.59a.56.56,0,0,1,1,.55l-5.32,9.59A.56.56,0,0,1,19.07,26.13Z"/><path class="cls-6" d="M21.26,27.37a.56.56,0,0,1-.6-.82L26,17a.56.56,0,1,1,1,.55l-5.32,9.59A.56.56,0,0,1,21.26,27.37Z"/></svg>