<svg id="圖層_2" data-name="圖層 2" xmlns="http://www.w3.org/2000/svg" viewBox="0 0 45 45"><defs><style>.cls-1{fill:#fff;}.cls-2{fill:#166086;}.cls-3{fill:#f0844b;}.cls-4{fill:#f8b757;}</style></defs><title>UI</title><circle class="cls-1" cx="22.81" cy="23.5" r="17" transform="translate(-0.62 0.61) rotate(-1.52)"/><path class="cls-2" d="M21.84,41h0a17.71,17.71,0,0,1-2-.23.5.5,0,0,1,.17-1,16.68,16.68,0,0,0,1.91.22.5.5,0,0,1,0,1Zm2,0a.5.5,0,0,1,0-1,16.59,16.59,0,0,0,1.91-.22.5.5,0,0,1,.17,1,17.4,17.4,0,0,1-2,.24ZM18,40.3l-.14,0a17.56,17.56,0,0,1-1.91-.69.5.5,0,0,1,.39-.92,16.7,16.7,0,0,0,1.8.65.5.5,0,0,1-.14,1Zm9.75,0a.5.5,0,0,1-.14-1,16.43,16.43,0,0,0,1.8-.66.5.5,0,1,1,.4.92,17.48,17.48,0,0,1-1.91.7ZM14.33,38.74a.5.5,0,0,1-.25-.07,17.61,17.61,0,0,1-1.7-1.12.5.5,0,1,1,.6-.8,16.56,16.56,0,0,0,1.6,1.05.5.5,0,0,1-.25.93Zm17,0a.5.5,0,0,1-.25-.93,17,17,0,0,0,1.6-1.06.5.5,0,1,1,.6.8,17.85,17.85,0,0,1-1.7,1.12A.5.5,0,0,1,31.32,38.72ZM11.16,36.38a.5.5,0,0,1-.34-.14,17.66,17.66,0,0,1-1.4-1.48.5.5,0,0,1,.77-.64,16.6,16.6,0,0,0,1.32,1.39.5.5,0,0,1-.34.86Zm23.32,0a.5.5,0,0,1-.34-.86,16.8,16.8,0,0,0,1.32-1.4.5.5,0,1,1,.77.64,17.78,17.78,0,0,1-1.39,1.48A.5.5,0,0,1,34.48,36.36Zm-25.86-3a.5.5,0,0,1-.42-.22,17.43,17.43,0,0,1-1-1.76.5.5,0,0,1,.89-.45,16.58,16.58,0,0,0,1,1.66.5.5,0,0,1-.42.78Zm28.4,0a.5.5,0,0,1-.42-.77,16.55,16.55,0,0,0,1-1.66.5.5,0,1,1,.89.45,17.56,17.56,0,0,1-1,1.76A.5.5,0,0,1,37,33.34ZM6.84,29.84a.5.5,0,0,1-.47-.33,17.66,17.66,0,0,1-.59-1.95.5.5,0,1,1,1-.23,16.6,16.6,0,0,0,.55,1.84.5.5,0,0,1-.3.64A.51.51,0,0,1,6.84,29.84Zm31.95,0a.51.51,0,0,1-.17,0,.5.5,0,0,1-.3-.64,16.27,16.27,0,0,0,.55-1.84.5.5,0,1,1,1,.23,17.17,17.17,0,0,1-.58,2A.5.5,0,0,1,38.79,29.81ZM5.93,26a.5.5,0,0,1-.5-.44,17.63,17.63,0,0,1-.12-2,.5.5,0,0,1,.5-.5h0a.5.5,0,0,1,.5.5,16.73,16.73,0,0,0,.11,1.91A.5.5,0,0,1,6,26ZM39.7,26h-.06a.5.5,0,0,1-.44-.55,16.6,16.6,0,0,0,.11-1.92.53.53,0,0,1,.5-.53.47.47,0,0,1,.5.47h-.5l.5,0a17.81,17.81,0,0,1-.12,2.05A.5.5,0,0,1,39.7,26ZM5.92,22.06H5.87a.5.5,0,0,1-.44-.55,17.41,17.41,0,0,1,.35-2,.5.5,0,1,1,1,.23,16.5,16.5,0,0,0-.33,1.89A.5.5,0,0,1,5.92,22.06ZM39.69,22a.5.5,0,0,1-.5-.44,16.58,16.58,0,0,0-.34-1.89.5.5,0,0,1,1-.23,17.49,17.49,0,0,1,.36,2,.5.5,0,0,1-.44.56ZM6.82,18.22a.49.49,0,0,1-.17,0,.5.5,0,0,1-.3-.64,17.58,17.58,0,0,1,.8-1.87.5.5,0,0,1,.89.45,16.46,16.46,0,0,0-.76,1.76A.5.5,0,0,1,6.82,18.22Zm31.95-.09a.5.5,0,0,1-.47-.33A16.58,16.58,0,0,0,37.53,16a.5.5,0,0,1,.89-.45,17.58,17.58,0,0,1,.81,1.86.5.5,0,0,1-.47.67ZM8.59,14.69a.5.5,0,0,1-.42-.77,17.88,17.88,0,0,1,1.21-1.63.5.5,0,1,1,.77.64A17.13,17.13,0,0,0,9,14.46.5.5,0,0,1,8.59,14.69ZM37,14.61a.5.5,0,0,1-.42-.22,16.43,16.43,0,0,0-1.15-1.53.5.5,0,1,1,.76-.65,17.47,17.47,0,0,1,1.22,1.63.5.5,0,0,1-.42.78ZM11.12,11.66a.5.5,0,0,1-.34-.86,17.55,17.55,0,0,1,1.55-1.31.5.5,0,1,1,.6.8,16.47,16.47,0,0,0-1.47,1.24A.5.5,0,0,1,11.12,11.66Zm23.32-.07a.5.5,0,0,1-.34-.14,16.34,16.34,0,0,0-1.47-1.23.5.5,0,1,1,.6-.8,17.55,17.55,0,0,1,1.56,1.3.5.5,0,0,1-.34.86ZM14.27,9.3A.5.5,0,0,1,14,8.37a17.45,17.45,0,0,1,1.81-.92.5.5,0,1,1,.4.92,16.51,16.51,0,0,0-1.71.87A.5.5,0,0,1,14.27,9.3Zm17,0A.5.5,0,0,1,31,9.18a16.54,16.54,0,0,0-1.72-.86.5.5,0,1,1,.39-.92,17.57,17.57,0,0,1,1.82.91.5.5,0,0,1-.25.93ZM17.89,7.72a.5.5,0,0,1-.14-1,17.56,17.56,0,0,1,2-.47.5.5,0,0,1,.18,1A16.56,16.56,0,0,0,18,7.7Zm9.75,0-.14,0a16.57,16.57,0,0,0-1.87-.43.5.5,0,1,1,.17-1,17.46,17.46,0,0,1,2,.46.5.5,0,0,1-.14,1ZM21.77,7a.5.5,0,0,1,0-1,18.1,18.1,0,0,1,2,0,.5.5,0,0,1,.47.53.48.48,0,0,1-.53.47A16.9,16.9,0,0,0,21.8,7Z"/><circle class="cls-3" cx="21.31" cy="21.5" r="6.25"/><path class="cls-2" d="M30.29,31.92l-3.65-5.09a7.35,7.35,0,0,0,.68-.79,7.27,7.27,0,1,0-5.9,3,7.4,7.4,0,0,0,1.16-.09,7.26,7.26,0,0,0,2.49-.88l3.6,5a1,1,0,0,0,1.63-1.16Zm-8-5A5.21,5.21,0,0,1,18.34,26a5.27,5.27,0,1,1,3.92.94Z"/><path class="cls-4" d="M20,23.42a.5.5,0,0,1-.45-.72L21,19.61a.5.5,0,1,1,.9.44l-1.5,3.08A.5.5,0,0,1,20,23.42Z"/><path class="cls-4" d="M22.15,23.42a.5.5,0,0,1-.45-.72l1.5-3.08a.5.5,0,1,1,.9.44l-1.5,3.08A.5.5,0,0,1,22.15,23.42Z"/></svg>