<svg id="圖層_2" data-name="圖層 2" xmlns="http://www.w3.org/2000/svg" viewBox="0 0 45 45"><defs><style>.cls-1{fill:#fff;}.cls-2{fill:#166086;}.cls-3{fill:#f8b757;}.cls-4{fill:#f0844b;}.cls-5{fill:#1e6282;}</style></defs><title>UI</title><circle class="cls-1" cx="22" cy="23.5" r="17"/><path class="cls-2" d="M21,41h0a17.67,17.67,0,0,1-2-.23.5.5,0,0,1,.17-1,16.68,16.68,0,0,0,1.91.22.5.5,0,0,1,0,1Zm2,0a.5.5,0,0,1,0-1,16.6,16.6,0,0,0,1.9-.22.5.5,0,1,1,.17,1A17.42,17.42,0,0,1,23,41Zm-5.86-.68-.14,0a17.63,17.63,0,0,1-1.91-.69.5.5,0,1,1,.39-.92,16.66,16.66,0,0,0,1.8.65.5.5,0,0,1-.14,1Zm9.75,0a.5.5,0,0,1-.14-1,16.31,16.31,0,0,0,1.8-.66.5.5,0,0,1,.4.92,17.54,17.54,0,0,1-1.91.7ZM13.52,38.74a.5.5,0,0,1-.25-.07,17.69,17.69,0,0,1-1.7-1.12.5.5,0,0,1,.6-.8,16.6,16.6,0,0,0,1.6,1.05.5.5,0,0,1-.25.93Zm17,0a.5.5,0,0,1-.25-.93,16.69,16.69,0,0,0,1.6-1.06.5.5,0,0,1,.6.8,17.74,17.74,0,0,1-1.7,1.12A.5.5,0,0,1,30.51,38.72ZM10.35,36.38a.5.5,0,0,1-.34-.14,17.66,17.66,0,0,1-1.4-1.48.5.5,0,1,1,.76-.64,16.6,16.6,0,0,0,1.32,1.39.5.5,0,0,1-.34.86Zm23.32,0a.5.5,0,0,1-.34-.86,16.61,16.61,0,0,0,1.32-1.4.5.5,0,0,1,.77.64A17.61,17.61,0,0,1,34,36.22.5.5,0,0,1,33.67,36.36Zm-25.86-3a.5.5,0,0,1-.42-.22,17.49,17.49,0,0,1-1-1.76.5.5,0,0,1,.89-.45,16.46,16.46,0,0,0,1,1.66.5.5,0,0,1-.42.78Zm28.4,0a.5.5,0,0,1-.42-.78,16.51,16.51,0,0,0,1-1.66.5.5,0,0,1,.89.45,17.51,17.51,0,0,1-1,1.76A.5.5,0,0,1,36.21,33.34ZM6,29.84a.5.5,0,0,1-.47-.33A17.44,17.44,0,0,1,5,27.57a.5.5,0,1,1,1-.23,16.48,16.48,0,0,0,.55,1.84.5.5,0,0,1-.47.67Zm31.95,0a.5.5,0,0,1-.47-.67,16.32,16.32,0,0,0,.55-1.84.5.5,0,0,1,1,.23,17.34,17.34,0,0,1-.58,2A.5.5,0,0,1,38,29.81ZM5.12,26a.5.5,0,0,1-.5-.44,17.74,17.74,0,0,1-.12-2A.5.5,0,0,1,5,23H5a.5.5,0,0,1,.5.5,16.73,16.73,0,0,0,.11,1.91.5.5,0,0,1-.44.56Zm33.77,0h-.06a.5.5,0,0,1-.44-.55,16.83,16.83,0,0,0,.11-1.92A.53.53,0,0,1,39,23a.47.47,0,0,1,.5.47v.07a17.71,17.71,0,0,1-.12,2A.5.5,0,0,1,38.89,26ZM5.11,22.06H5.05a.5.5,0,0,1-.44-.55,17.52,17.52,0,0,1,.35-2,.5.5,0,0,1,1,.23,16.61,16.61,0,0,0-.33,1.89A.5.5,0,0,1,5.11,22.06ZM38.88,22a.5.5,0,0,1-.5-.44A16.47,16.47,0,0,0,38,19.63a.5.5,0,1,1,1-.23,17.6,17.6,0,0,1,.36,2,.5.5,0,0,1-.44.56ZM6,18.22a.49.49,0,0,1-.17,0,.5.5,0,0,1-.3-.64,17.56,17.56,0,0,1,.8-1.87.5.5,0,0,1,.89.45,16.48,16.48,0,0,0-.76,1.76A.5.5,0,0,1,6,18.22ZM38,18.12a.5.5,0,0,1-.47-.33A16.54,16.54,0,0,0,36.72,16a.5.5,0,1,1,.89-.45,17.47,17.47,0,0,1,.81,1.86.5.5,0,0,1-.47.67ZM7.77,14.69a.5.5,0,0,1-.42-.77,17.81,17.81,0,0,1,1.21-1.63.5.5,0,0,1,.77.64,16.84,16.84,0,0,0-1.14,1.54A.5.5,0,0,1,7.77,14.69Zm28.4-.08a.5.5,0,0,1-.42-.22,16.62,16.62,0,0,0-1.15-1.53.5.5,0,0,1,.76-.65,17.53,17.53,0,0,1,1.22,1.63.5.5,0,0,1-.42.78ZM10.3,11.66A.5.5,0,0,1,10,10.8a17.58,17.58,0,0,1,1.55-1.31.5.5,0,1,1,.6.8,16.59,16.59,0,0,0-1.47,1.24A.5.5,0,0,1,10.3,11.66Zm23.32-.07a.5.5,0,0,1-.34-.14,16.57,16.57,0,0,0-1.47-1.23.5.5,0,1,1,.59-.8A17.73,17.73,0,0,1,34,10.73a.5.5,0,0,1-.34.86ZM13.46,9.3a.5.5,0,0,1-.25-.93A17.45,17.45,0,0,1,15,7.45a.5.5,0,0,1,.4.92,16.55,16.55,0,0,0-1.71.87A.5.5,0,0,1,13.46,9.3Zm17-.05a.5.5,0,0,1-.25-.07,16.54,16.54,0,0,0-1.72-.86.5.5,0,1,1,.39-.92,17.57,17.57,0,0,1,1.82.91.5.5,0,0,1-.25.93ZM17.08,7.72a.5.5,0,0,1-.14-1,17.4,17.4,0,0,1,2-.47.5.5,0,1,1,.18,1,16.6,16.6,0,0,0-1.86.45Zm9.75,0-.14,0a16.5,16.5,0,0,0-1.87-.43.5.5,0,1,1,.17-1,17.5,17.5,0,0,1,2,.46.5.5,0,0,1-.14,1ZM21,7a.5.5,0,0,1,0-1,18.34,18.34,0,0,1,2,0,.5.5,0,1,1-.05,1A16.77,16.77,0,0,0,21,7Z"/><path class="cls-3" d="M25.67,13.62h0a.5.5,0,0,1-.47-.53l.16-2.58a.49.49,0,0,1,.53-.47.5.5,0,0,1,.47.53l-.16,2.58A.5.5,0,0,1,25.67,13.62Z"/><path class="cls-3" d="M28.93,14.28a.5.5,0,0,1-.43-.75l1.31-2.23a.5.5,0,0,1,.86.51L29.36,14A.5.5,0,0,1,28.93,14.28Z"/><path class="cls-3" d="M31.49,16.78a.5.5,0,0,1-.11-1l2.53-.56a.5.5,0,0,1,.21,1l-2.53.56Z"/><rect class="cls-4" x="13.86" y="16.42" width="16.15" height="17" rx="1.61" ry="1.61" transform="translate(-4.73 5.14) rotate(-12.08)"/><path class="cls-5" d="M16.09,22.81A.6.6,0,0,1,16,21.62L26,19.47a.6.6,0,0,1,.25,1.18L16.22,22.8Z"/><path class="cls-5" d="M16.68,25.58a.6.6,0,0,1-.13-1.19l10.07-2.16a.6.6,0,0,1,.25,1.18L16.81,25.57Z"/><path class="cls-5" d="M17.28,28.35a.6.6,0,0,1-.13-1.19L27.22,25a.6.6,0,0,1,.25,1.18L17.4,28.34Z"/><path class="cls-5" d="M17.87,31.13a.6.6,0,0,1-.13-1.19l10.07-2.16A.6.6,0,0,1,28.06,29L18,31.11Z"/></svg>