<svg id="圖層_2" data-name="圖層 2" xmlns="http://www.w3.org/2000/svg" viewBox="0 0 45 45"><defs><style>.cls-1{fill:#fff;}.cls-2{fill:#166086;}.cls-3{fill:#f0844b;}.cls-4{fill:#f8b757;}</style></defs><title>UI</title><circle class="cls-1" cx="22.67" cy="23.5" r="17"/><path class="cls-2" d="M21.7,41h0a17.71,17.71,0,0,1-2-.23.5.5,0,0,1,.17-1,16.68,16.68,0,0,0,1.91.22.5.5,0,0,1,0,1Zm2,0a.5.5,0,0,1,0-1,16.59,16.59,0,0,0,1.91-.22.5.5,0,1,1,.17,1,17.4,17.4,0,0,1-2,.24Zm-5.86-.68-.14,0a17.56,17.56,0,0,1-1.91-.69.5.5,0,0,1,.39-.92,16.7,16.7,0,0,0,1.8.65.5.5,0,0,1-.14,1Zm9.75,0a.5.5,0,0,1-.14-1,16.43,16.43,0,0,0,1.8-.66.5.5,0,1,1,.4.92,17.48,17.48,0,0,1-1.91.7ZM14.18,38.74a.5.5,0,0,1-.25-.07,17.61,17.61,0,0,1-1.7-1.12.5.5,0,1,1,.6-.8,16.56,16.56,0,0,0,1.6,1.05.5.5,0,0,1-.25.93Zm17,0a.5.5,0,0,1-.25-.93,17,17,0,0,0,1.6-1.06.5.5,0,1,1,.6.8,17.85,17.85,0,0,1-1.7,1.12A.5.5,0,0,1,31.18,38.72ZM11,36.38a.5.5,0,0,1-.34-.14,17.66,17.66,0,0,1-1.4-1.48.5.5,0,0,1,.77-.64,16.6,16.6,0,0,0,1.32,1.39.5.5,0,0,1-.34.86Zm23.32,0A.5.5,0,0,1,34,35.5a16.8,16.8,0,0,0,1.32-1.4.5.5,0,1,1,.77.64,17.78,17.78,0,0,1-1.39,1.48A.5.5,0,0,1,34.34,36.36Zm-25.86-3a.5.5,0,0,1-.42-.22,17.43,17.43,0,0,1-1-1.76.5.5,0,0,1,.89-.45,16.58,16.58,0,0,0,1,1.66.5.5,0,0,1-.42.78Zm28.4,0a.5.5,0,0,1-.42-.77,16.55,16.55,0,0,0,1-1.66.5.5,0,1,1,.89.45,17.56,17.56,0,0,1-1,1.76A.5.5,0,0,1,36.87,33.34ZM6.7,29.84a.5.5,0,0,1-.47-.33,17.66,17.66,0,0,1-.59-1.95.5.5,0,1,1,1-.23,16.6,16.6,0,0,0,.55,1.84.5.5,0,0,1-.3.64A.51.51,0,0,1,6.7,29.84Zm32,0a.5.5,0,0,1-.47-.67,16.58,16.58,0,0,0,.55-1.84.5.5,0,1,1,1,.23,17.29,17.29,0,0,1-.58,2A.5.5,0,0,1,38.65,29.81ZM5.78,26a.5.5,0,0,1-.5-.44,17.64,17.64,0,0,1-.12-2,.5.5,0,0,1,.5-.5h0a.5.5,0,0,1,.5.5,16.73,16.73,0,0,0,.11,1.91.5.5,0,0,1-.44.56Zm33.77,0H39.5a.5.5,0,0,1-.44-.55,16.6,16.6,0,0,0,.11-1.92.53.53,0,0,1,.5-.53.47.47,0,0,1,.5.47v.07a17.71,17.71,0,0,1-.12,2A.5.5,0,0,1,39.55,26ZM5.78,22.06H5.72a.5.5,0,0,1-.44-.55,17.41,17.41,0,0,1,.35-2,.5.5,0,1,1,1,.23,16.5,16.5,0,0,0-.33,1.89A.5.5,0,0,1,5.78,22.06ZM39.54,22a.5.5,0,0,1-.5-.44,16.58,16.58,0,0,0-.34-1.89.5.5,0,0,1,1-.23,17.49,17.49,0,0,1,.36,2,.5.5,0,0,1-.44.56ZM6.68,18.22a.49.49,0,0,1-.17,0,.5.5,0,0,1-.3-.64A17.58,17.58,0,0,1,7,15.68a.5.5,0,0,1,.89.45,16.46,16.46,0,0,0-.76,1.76A.5.5,0,0,1,6.68,18.22Zm32-.1a.5.5,0,0,1-.47-.33A16.58,16.58,0,0,0,37.39,16a.5.5,0,0,1,.89-.45,17.58,17.58,0,0,1,.81,1.86.5.5,0,0,1-.47.67ZM8.44,14.69A.5.5,0,0,1,8,13.92a17.88,17.88,0,0,1,1.21-1.63.5.5,0,1,1,.77.64,17.13,17.13,0,0,0-1.14,1.54A.5.5,0,0,1,8.44,14.69Zm28.4-.08a.5.5,0,0,1-.42-.22,16.43,16.43,0,0,0-1.15-1.53A.5.5,0,1,1,36,12.2a17.47,17.47,0,0,1,1.22,1.63.5.5,0,0,1-.42.78ZM11,11.66a.5.5,0,0,1-.34-.86,17.55,17.55,0,0,1,1.55-1.31.5.5,0,1,1,.6.8,16.47,16.47,0,0,0-1.47,1.24A.5.5,0,0,1,11,11.66Zm23.32-.07a.5.5,0,0,1-.34-.14,16.34,16.34,0,0,0-1.47-1.23.5.5,0,1,1,.6-.8,17.55,17.55,0,0,1,1.56,1.3.5.5,0,0,1-.34.86ZM14.13,9.3a.5.5,0,0,1-.25-.93,17.45,17.45,0,0,1,1.81-.92.5.5,0,1,1,.4.92,16.51,16.51,0,0,0-1.71.87A.5.5,0,0,1,14.13,9.3Zm17-.05a.5.5,0,0,1-.25-.07,16.54,16.54,0,0,0-1.72-.86.5.5,0,1,1,.39-.92,17.57,17.57,0,0,1,1.82.91.5.5,0,0,1-.25.93ZM17.74,7.72a.5.5,0,0,1-.14-1,17.56,17.56,0,0,1,2-.47.5.5,0,0,1,.18,1,16.56,16.56,0,0,0-1.87.45Zm9.75,0-.14,0a16.57,16.57,0,0,0-1.87-.43.5.5,0,1,1,.17-1,17.46,17.46,0,0,1,2,.46.5.5,0,0,1-.14,1ZM21.63,7a.5.5,0,0,1,0-1,18.1,18.1,0,0,1,2,0,.5.5,0,0,1,.47.53.48.48,0,0,1-.53.47,16.9,16.9,0,0,0-1.92,0Z"/><path class="cls-2" d="M30.55,23l-5.21,9.08a.68.68,0,0,1-.92.27L12.12,25.29c-2.48-1.42-3.41-2.41-2.28-4.8s2.93-2.71,6-1.76,3.37,1,4.48,0a4.25,4.25,0,0,0,.9-1,.67.67,0,0,1,.88-.25L30.29,22A.68.68,0,0,1,30.55,23Z"/><path class="cls-3" d="M21.57,21.3a2.31,2.31,0,0,0-.29-1.74,2.21,2.21,0,0,0-1.9-.8,2.39,2.39,0,0,0,.06-2.12A2.22,2.22,0,0,0,16.29,16a2.41,2.41,0,0,0-1,1.48,2.31,2.31,0,0,0,.29,1.74,1.45,1.45,0,0,0,.52.49,2.94,2.94,0,0,0,1.38.32,2.39,2.39,0,0,0-.06,2.12,2.18,2.18,0,0,0,.76.73,2.25,2.25,0,0,0,2.38-.1h0A2.41,2.41,0,0,0,21.57,21.3Zm-4.93-2.79A1.07,1.07,0,0,1,17,17.07,1,1,0,0,1,18,17a1,1,0,0,1,.34.33c.13.2-.08.85-.36,1.38C17.42,18.79,16.77,18.72,16.64,18.52Zm3.25,3.21a1,1,0,0,1-1.41-.28c-.13-.2.08-.85.36-1.38.59-.06,1.24,0,1.37.22A1.07,1.07,0,0,1,19.89,21.72Z"/><path class="cls-4" d="M30.65,33.38a.5.5,0,0,1-.5-.5,1.34,1.34,0,1,0-2.69,0,.5.5,0,0,1-1,0,2.34,2.34,0,1,1,4.69,0A.5.5,0,0,1,30.65,33.38Z"/><path class="cls-4" d="M34.77,33.38a.5.5,0,0,1-.5-.5.75.75,0,1,0-1.5,0,.5.5,0,1,1-1,0,1.75,1.75,0,1,1,3.5,0A.5.5,0,0,1,34.77,33.38Z"/></svg>